<?xml version="1.0" encoding="UTF-8"?>
<svg version="1.1" xmlns="http://www.w3.org/2000/svg" width="625" height="254">
<path d="M0 0 C11.0446875 -0.0928125 11.0446875 -0.0928125 22.3125 -0.1875 C24.61387939 -0.21481201 26.91525879 -0.24212402 29.28637695 -0.27026367 C31.14533974 -0.27903945 33.00430838 -0.28668079 34.86328125 -0.29296875 C36.26870178 -0.3159906 36.26870178 -0.3159906 37.70251465 -0.33947754 C46.76193518 -0.34299941 55.84593827 1.06736344 63 7 C66.94559546 11.05519533 68.9332104 15.23751919 69.03515625 20.98046875 C68.50276751 27.69376091 65.99272256 32.17687085 61.0625 36.6875 C55.95189709 40.07215368 49.85741919 41.4233413 44 43 C44.76441406 43.39703125 45.52882812 43.7940625 46.31640625 44.203125 C49.26212956 46.17551615 50.2816834 47.65914235 51.9375 50.75 C53.847461 54.14328135 55.78052034 57.09418278 58.375 60 C61 63 61 63 61 65 C61.66 65 62.32 65 63 65 C64.68732277 66.98260426 66.35366057 68.9832342 68 71 C68.66 71.33 69.32 71.66 70 72 C70 72.66 70 73.32 70 74 C70.66 74 71.32 74 72 74 C72 74.66 72 75.32 72 76 C72.72316406 76.25265625 73.44632812 76.5053125 74.19140625 76.765625 C77.2077192 78.09129245 79.36260564 79.70278045 81.9375 81.75 C88.21605265 86.38957304 94.68270778 89.34345352 102 92 C103.12792969 92.41507812 104.25585938 92.83015625 105.41796875 93.2578125 C124.47573 99.30722395 145.73085236 97.36549536 163.5625 88.5625 C168.33737985 86.03044943 172.75194758 83.33775547 177 80 C176.11957031 80.03480469 175.23914063 80.06960937 174.33203125 80.10546875 C173.17058594 80.13253906 172.00914062 80.15960938 170.8125 80.1875 C169.08966797 80.23970703 169.08966797 80.23970703 167.33203125 80.29296875 C162.78472157 79.89314668 160.38828305 78.40043432 157.21484375 75.19921875 C154.42205182 70.14345716 155.1880445 63.08440956 156.62109375 57.640625 C157.60252248 55.32009128 158.75116909 53.1890019 160 51 C160.804375 49.48212891 160.804375 49.48212891 161.625 47.93359375 C165.77009704 40.34288479 170.50232208 33.35532199 175.55419922 26.3425293 C181.47541389 18.0571701 186.76304023 9.7108793 190 0 C195.61 0 201.22 0 207 0 C210.60046315 7.61636435 214.13210595 15.15078233 217.171875 23.0078125 C218.00151456 25.14035738 218.00151456 25.14035738 219.5 27.5 C221.35429714 30.59049523 222.55467257 33.79976453 223.85668945 37.15405273 C224.92637689 39.81673616 226.07123029 42.42042167 227.26953125 45.02734375 C230.14591614 51.31811189 232.99443848 57.62037677 235.8125 63.9375 C236.31458984 65.04673828 236.81667969 66.15597656 237.33398438 67.29882812 C237.80771484 68.36423828 238.28144531 69.42964844 238.76953125 70.52734375 C239.19854736 71.48374756 239.62756348 72.44015137 240.06958008 73.42553711 C241 76 241 76 241 80 C235.72 80 230.44 80 225 80 C224.29875 77.7725 223.5975 75.545 222.875 73.25 C220.56076284 66.11423923 217.57851094 59.6036439 214 53 C210.87709365 53.48578543 208.00419641 53.9986012 205 55 C205 55.66 205 56.32 205 57 C203.390625 58.55078125 203.390625 58.55078125 201.25 60.3125 C198.08238651 62.98762235 195.56907035 65.73925686 193 69 C192.34 69 191.68 69 191 69 C190.731875 69.5775 190.46375 70.155 190.1875 70.75 C188.97070811 73.05550043 187.69666121 75.02056192 186 77 C185.34 77 184.68 77 184 77 C184 77.66 184 78.32 184 79 C183.34 79 182.68 79 182 79 C182 79.66 182 80.32 182 81 C164.22685269 97.89462672 141.33625439 106.2660628 117 106 C97.05717402 104.88869764 76.05015319 97.36085028 61 84 C61 83.34 61 82.68 61 82 C60.01 81.67 59.02 81.34 58 81 C58 80.34 58 79.68 58 79 C57.43925781 78.7834375 56.87851563 78.566875 56.30078125 78.34375 C53.21838495 76.54350496 51.44564012 74.25955391 49.1875 71.5 C48.75171631 70.96753662 48.31593262 70.43507324 47.86694336 69.88647461 C43.36883655 64.32979514 38.97449777 58.61111356 35.5390625 52.328125 C33.90169683 49.85129774 33.05001472 49.1688732 30.3125 48.1875 C29.219375 47.795625 28.12625 47.40375 27 47 C27.29272461 45.10473633 27.29272461 45.10473633 28 43 C30.52945609 41.72186495 32.9260141 40.6841916 35.5625 39.6875 C43.09520445 36.61321604 49.59148157 33.52801465 53.5625 26.0625 C54.45520738 19.81354834 53.85192458 15.74938755 50.25 10.625 C46.00800943 5.46391148 42.60793325 5.10132221 36 4 C28.74 3.67 21.48 3.34 14 3 C14.33 28.41 14.66 53.82 15 80 C10.05 80 5.1 80 0 80 C0 53.6 0 27.2 0 0 Z M193 6 C192.78085937 6.52207031 192.56171875 7.04414062 192.3359375 7.58203125 C188.18467256 17.21769094 183.21421822 25.82913562 177.0625 34.3125 C166.05265273 49.32381118 166.05265273 49.32381118 163 67 C164.87272132 69.44067045 164.87272132 69.44067045 168 70 C172.06524858 68.68709871 175.46821221 66.35452519 179 64 C179 63.34 179 62.68 179 62 C179.59079346 61.7417041 180.18158691 61.4834082 180.7902832 61.21728516 C183.17529067 59.90343616 184.55093532 58.55020151 186.35546875 56.5234375 C187.29036133 55.51796875 187.29036133 55.51796875 188.24414062 54.4921875 C189.53474302 53.08614429 190.81103281 51.6668218 192.07226562 50.234375 C196.7567052 45.26704706 196.7567052 45.26704706 200.38696289 44.48730469 C205.05902316 44.40589507 208.20257133 45.06005522 212 48 C211.3326884 45.02578122 210.38004685 42.34292071 209.1796875 39.54296875 C208.81238525 38.68421143 208.44508301 37.8254541 208.06665039 36.94067383 C207.67340576 36.03212646 207.28016113 35.1235791 206.875 34.1875 C206.47337646 33.25639404 206.07175293 32.32528809 205.65795898 31.3659668 C200.67407105 17.79077341 200.67407105 17.79077341 193 6 Z " fill="#DEB967" transform="translate(188,75)"/>
<path d="M0 0 C1.12591553 0.00523682 2.25183105 0.01047363 3.41186523 0.01586914 C4.62680664 0.0190918 5.84174805 0.02231445 7.09350586 0.02563477 C8.37290039 0.03401367 9.65229492 0.04239258 10.97045898 0.05102539 C12.2537207 0.05553711 13.53698242 0.06004883 14.85913086 0.06469727 C18.04211921 0.07652994 21.22501661 0.09301471 24.40795898 0.11352539 C23.39918188 4.60238095 21.44893624 6.68267925 18.40795898 10.11352539 C19.01381836 10.26047852 19.61967773 10.40743164 20.24389648 10.55883789 C32.5198394 13.84501338 42.79329303 20.55088375 49.28295898 31.67602539 C53.66633511 40.38374228 55.01859263 49.88330865 52.87280273 59.51586914 C52.16713991 61.46319006 51.33859165 63.26439875 50.40795898 65.11352539 C50.15272461 65.75418945 49.89749023 66.39485352 49.63452148 67.05493164 C44.70929906 78.59983374 34.55631505 84.58955481 23.40795898 89.11352539 C11.47812292 92.36711704 -1.31170229 90.50028792 -12.08422852 84.79321289 C-17.57678812 81.40890849 -21.63892743 77.17269149 -25.59204102 72.11352539 C-26.11797852 71.46899414 -26.64391602 70.82446289 -27.18579102 70.16040039 C-32.48648007 62.44495299 -33.28836213 51.34530108 -31.84204102 42.36352539 C-29.6342158 32.06034103 -23.19456288 23.18589377 -14.59204102 17.11352539 C-9.11389753 13.99225759 -3.72515847 11.58014043 2.40795898 10.11352539 C1.91295898 8.62852539 1.91295898 8.62852539 1.40795898 7.11352539 C0.74795898 6.78352539 0.08795898 6.45352539 -0.59204102 6.11352539 C-0.59204102 5.45352539 -0.59204102 4.79352539 -0.59204102 4.11352539 C-1.25204102 4.11352539 -1.91204102 4.11352539 -2.59204102 4.11352539 C-2.92204102 3.12352539 -3.25204102 2.13352539 -3.59204102 1.11352539 C-2.59204102 0.11352539 -2.59204102 0.11352539 0 0 Z M-11.59204102 20.11352539 C-11.59204102 20.77352539 -11.59204102 21.43352539 -11.59204102 22.11352539 C-12.18500977 22.3571582 -12.77797852 22.60079102 -13.38891602 22.85180664 C-17.76716971 25.3592108 -19.80516231 29.51951787 -21.59204102 34.11352539 C-22.89127654 43.15969513 -21.89177943 51.066042 -17.59204102 59.11352539 C-17.21047852 59.82766602 -16.82891602 60.54180664 -16.43579102 61.27758789 C-15.52486183 62.91075379 -14.56435888 64.51614604 -13.59204102 66.11352539 C-12.93204102 66.11352539 -12.27204102 66.11352539 -11.59204102 66.11352539 C-11.2246582 66.99524414 -11.2246582 66.99524414 -10.84985352 67.89477539 C-6.62704348 75.34370738 3.01984993 79.45763518 10.72045898 82.36352539 C19.43274482 84.13551573 26.67909125 83.83728942 34.28295898 78.89477539 C39.27626282 75.14979752 41.38107707 71.23747574 42.40795898 65.11352539 C42.94512435 58.45960607 42.75966729 52.42600557 40.40795898 46.11352539 C39.99545898 44.97915039 39.58295898 43.84477539 39.15795898 42.67602539 C33.29111035 30.73279782 23.84411573 22.67671361 11.40795898 18.11352539 C3.4875889 15.68006531 -4.1825996 16.75830664 -11.59204102 20.11352539 Z " fill="#DEB967" transform="translate(290.592041015625,64.886474609375)"/>
<path d="M0 0 C0.66 0 1.32 0 2 0 C3.2890625 1.75 3.2890625 1.75 4.625 4 C5.07101562 4.7425 5.51703125 5.485 5.9765625 6.25 C6.31429688 6.8275 6.65203125 7.405 7 8 C9.25245881 5.31158141 10.88213958 3.35358125 12 0 C12.99 0 13.98 0 15 0 C15 4.29 15 8.58 15 13 C14.01 13 13.02 13 12 13 C11.67 11.35 11.34 9.7 11 8 C9.515 10.475 9.515 10.475 8 13 C5 12 5 12 3 9 C2.67 10.32 2.34 11.64 2 13 C1.34 13 0.68 13 0 13 C0 8.71 0 4.42 0 0 Z " fill="#DEB967" transform="translate(288,188)"/>
<path d="M0 0 C4.75975434 0.27998555 4.75975434 0.27998555 7.1875 2.1875 C8.68758329 5.3240378 9.52962867 7.13260327 8.4375 10.5 C7.1875 12.1875 7.1875 12.1875 5.1875 13.1875 C3.64726004 13.25700541 2.10415012 13.27202357 0.5625 13.25 C-0.66339844 13.23646484 -0.66339844 13.23646484 -1.9140625 13.22265625 C-2.85378906 13.20525391 -2.85378906 13.20525391 -3.8125 13.1875 C-3.83936553 11.20840602 -3.85883375 9.22921029 -3.875 7.25 C-3.88660156 6.14785156 -3.89820313 5.04570312 -3.91015625 3.91015625 C-3.77683247 0.19308932 -3.71801208 0.24786747 0 0 Z M0.1875 3.1875 C0.1875 5.8275 0.1875 8.4675 0.1875 11.1875 C1.5075 11.1875 2.8275 11.1875 4.1875 11.1875 C4.5175 8.8775 4.8475 6.5675 5.1875 4.1875 C3.5375 3.8575 1.8875 3.5275 0.1875 3.1875 Z " fill="#DEB967" transform="translate(243.8125,187.8125)"/>
<path d="M0 0 C2 1.125 2 1.125 3 3 C2.66666667 9.33333333 2.66666667 9.33333333 0 12 C-3.03958074 12.49602266 -5.95527064 12.44529863 -9 12 C-11.125 10.375 -11.125 10.375 -12 8 C-11.92974155 4.55733615 -11.60090824 2.71646751 -9.375 0.0625 C-5.9175022 -1.48427533 -3.61548831 -0.92030612 0 0 Z M-5 1 C-7.32511472 2.26352052 -7.32511472 2.26352052 -9 4 C-8.62095792 7.29075996 -8.62095792 7.29075996 -7 10 C-4.66055264 9.71269945 -2.3260857 9.38063221 0 9 C0 7.02 0 5.04 0 3 C-2.26601865 1.70957237 -2.26601865 1.70957237 -5 1 Z " fill="#DEB967" transform="translate(321,189)"/>
<path d="M0 0 C8 4 8 4 10 8 C10.33 5.36 10.66 2.72 11 0 C11.66 0.33 12.32 0.66 13 1 C13 4.96 13 8.92 13 13 C9.06565804 12.01641451 8.32850017 11.691807 5.75 8.9375 C5.22921875 8.38964844 4.7084375 7.84179688 4.171875 7.27734375 C3.59179688 6.64505859 3.59179688 6.64505859 3 6 C2.67 8.31 2.34 10.62 2 13 C1.34 13 0.68 13 0 13 C0 8.71 0 4.42 0 0 Z " fill="#DEB967" transform="translate(330,188)"/>
<path d="M0 0 C8.38209332 0.36443884 8.38209332 0.36443884 11.1875 3.25 C12 6 12 6 11.3125 8.6875 C10 11 10 11 8 13 C5.31160615 13.26991906 2.70858064 13.08737357 0 13 C0 8.71 0 4.42 0 0 Z M2 3 C2 5.64 2 8.28 2 11 C3.65 11 5.3 11 7 11 C8.01540112 6.89776415 8.01540112 6.89776415 7 3 C5.35 3 3.7 3 2 3 Z " fill="#DEB967" transform="translate(351,188)"/>
<path d="M0 0 C0.33 0.99 0.66 1.98 1 3 C-1.97 2.505 -1.97 2.505 -5 2 C-4.01 2.66 -3.02 3.32 -2 4 C-1.01 4.66 -0.02 5.32 1 6 C1.25 8.5625 1.25 8.5625 1 11 C0 12 0 12 -1.84765625 12.09765625 C-3.8984375 12.06510417 -5.94921875 12.03255208 -8 12 C-8.33 10.68 -8.66 9.36 -9 8 C-6.69 8.66 -4.38 9.32 -2 10 C-3.50663783 6.98672434 -6.03166411 6.38943382 -9 5 C-8.625 2.5625 -8.625 2.5625 -8 0 C-5.13822943 -1.43088528 -3.06624227 -0.59991697 0 0 Z " fill="#DEB967" transform="translate(376,189)"/>
<path d="M0 0 C0.66 0 1.32 0 2 0 C3.98 3.96 5.96 7.92 8 12 C7.01 12.33 6.02 12.66 5 13 C4.67 12.01 4.34 11.02 4 10 C2.02 10 0.04 10 -2 10 C-2.33 10.99 -2.66 11.98 -3 13 C-3.66 13 -4.32 13 -5 13 C-4.39254603 8.14036821 -2.27241033 4.2594482 0 0 Z M0 4 C-0.33 5.32 -0.66 6.64 -1 8 C-0.01 8 0.98 8 2 8 C1.34 6.68 0.68 5.36 0 4 Z " fill="#DEB967" transform="translate(274,188)"/>
<path d="M0 0 C0.99 0 1.98 0 3 0 C3 4.29 3 8.58 3 13 C2.01 13 1.02 13 0 13 C0 8.71 0 4.42 0 0 Z " fill="#DEB967" transform="translate(259,188)"/>
</svg>
