<?xml version="1.0" encoding="UTF-8"?>
<svg version="1.1" xmlns="http://www.w3.org/2000/svg" width="797" height="450">
<path d="M0 0 C17.30040804 -0.07057798 34.60077014 -0.12322405 51.90128994 -0.15543652 C59.93709102 -0.17080142 67.97280185 -0.19168803 76.00854492 -0.22631836 C83.02546591 -0.2565432 90.04232144 -0.27565 97.05930573 -0.28226548 C100.76298749 -0.28612278 104.46648225 -0.29496074 108.17010307 -0.31719017 C139.45854897 -0.49743928 168.93998444 1.22283204 197 16 C197 16.66 197 17.32 197 18 C197.87205078 18.40025391 197.87205078 18.40025391 198.76171875 18.80859375 C206.11089208 22.72045739 211.1831473 29.40274099 216 36 C216.47228027 36.57331055 216.94456055 37.14662109 217.43115234 37.73730469 C223.87236013 47.02723836 224.85084988 57.98601708 224.6875 68.9375 C224.68041016 70.24477051 224.67332031 71.55204102 224.66601562 72.89892578 C224.43676452 82.6823386 222.99614772 90.52439227 218 99 C217.34 99 216.68 99 216 99 C215.6596875 100.36125 215.6596875 100.36125 215.3125 101.75 C213.76704657 105.57683707 212.26341696 106.55243728 209 109 C208.00143696 110.19235425 207.0232624 111.40198225 206.0625 112.625 C203.4024338 115.85162576 201.16734967 117.1069965 197 118 C197 118.66 197 119.32 197 120 C175.01717505 131.800045 151.48919071 137.79305802 127 142 C127.60473145 142.03963867 128.20946289 142.07927734 128.83251953 142.12011719 C131.59829373 142.31180975 134.36128673 142.53065768 137.125 142.75 C138.07632813 142.811875 139.02765625 142.87375 140.0078125 142.9375 C147.45758241 143.55831416 152.28931067 145.5693581 157.25 151.375 C159.73476095 154.38663435 161.06556998 157.16883691 162 161 C162.66 161 163.32 161 164 161 C164.33 162.65 164.66 164.3 165 166 C165.66 166 166.32 166 167 166 C168.40234375 168.08203125 168.40234375 168.08203125 169.9375 170.8125 C171.73243622 173.99380639 173.42463583 176.43931027 176 179 C176.33 179.99 176.66 180.98 177 182 C177.598125 182.598125 178.19625 183.19625 178.8125 183.8125 C181.31119914 186.31119914 183.04456035 189.06684052 185 192 C185.66 192.33 186.32 192.66 187 193 C188 195 189 197 190 199 C191.39588754 200.64594139 191.39588754 200.64594139 193 202 C196.78494624 205.55555556 196.78494624 205.55555556 197.9375 207.9375 C199.43940764 210.85296777 201.65539599 212.71145544 204 215 C215.03833992 225.89560277 215.03833992 225.89560277 217.6875 229.25 C220.78138835 232.92921858 224.33055346 235.90957259 228 239 C232.5812812 242.88574255 236.93662523 246.81157221 241.0625 251.1875 C242.96539122 253.22022355 242.96539122 253.22022355 246 254 C247.02454528 254.97483689 248.02240765 255.97808357 249 257 C252.67773282 259.94061793 256.48055086 262.69805454 260.4375 265.25 C263 267 263 267 264 269 C264.99 269.33 265.98 269.66 267 270 C267 270.66 267 271.32 267 272 C268.65 272.33 270.3 272.66 272 273 C272 273.66 272 274.32 272 275 C272.7425 275.28875 273.485 275.5775 274.25 275.875 C276.56739797 276.82302644 278.77917115 277.84845911 281 279 C281 279.66 281 280.32 281 281 C281.56203125 281.10570312 282.1240625 281.21140625 282.703125 281.3203125 C285.41374878 282.12243586 287.35887013 283.36061775 289.75 284.875 C295.96730329 288.58088029 302.41764802 291.62204294 309 294.625 C309.99612305 295.07987793 310.99224609 295.53475586 312.01855469 296.00341797 C327.33360389 302.92854912 342.59743362 309.17568196 359 313 C360.83358282 313.47821108 362.66690958 313.95740489 364.5 314.4375 C369.95382948 315.79199904 375.43543991 316.98544983 380.9375 318.125 C382.13439453 318.38108032 382.13439453 318.38108032 383.35546875 318.64233398 C396.2345975 321.25061722 409.27860028 321.18643769 422.36352539 321.18530273 C425.16503258 321.18748252 427.96614049 321.20568572 430.76757812 321.22460938 C446.29095741 321.27444242 461.4017129 320.17610526 476.5625 316.6875 C477.52937744 316.4702124 478.49625488 316.2529248 479.49243164 316.02905273 C493.75543076 312.75664078 507.38267944 308.32595095 521 303 C521.99386719 302.62746094 522.98773437 302.25492187 524.01171875 301.87109375 C528.81172002 300.04149685 532.74916953 297.92834988 537 295 C538.69231455 294.26559935 540.38558939 293.53268722 542.09375 292.8359375 C548.69576928 289.9407897 554.82464648 285.93210539 560.93359375 282.13671875 C563 281 563 281 565 281 C565 280.34 565 279.68 565 279 C567.90567134 276.98217268 570.51669784 275.64505596 574 275 C574 274.34 574 273.68 574 273 C575.65532623 271.98133771 577.32260138 270.98189187 579 270 C579.33 269.34 579.66 268.68 580 268 C583.08149079 266.13947726 586.09166465 264.40636055 589.375 262.9375 C591.35764383 262.03325133 591.35764383 262.03325133 592 259 C593.8125 257.46484375 593.8125 257.46484375 596 255.9375 C599.01628184 253.92046147 599.01628184 253.92046147 601 251 C600.40316406 251.37511719 599.80632813 251.75023437 599.19140625 252.13671875 C593.39358626 255.5568295 587.68401595 257.94062037 581.25 259.8125 C580.54174072 260.0189917 579.83348145 260.2254834 579.10375977 260.43823242 C566.33338938 263.99327181 551.4592457 265.16035923 539 260 C538.2884375 259.71382813 537.576875 259.42765625 536.84375 259.1328125 C535.21528128 258.45428387 533.60484833 257.73264815 532 257 C532 256.34 532 255.68 532 255 C531.11634766 254.61328125 531.11634766 254.61328125 530.21484375 254.21875 C522.25431649 249.83835405 517.76200049 240.28600146 515 232 C513.53695509 216.39589878 515.38986445 202.55169775 521 188 C521.24556641 187.34854004 521.49113281 186.69708008 521.74414062 186.02587891 C526.40796054 173.85562157 532.83579169 162.35217932 539.63671875 151.26171875 C540.98937421 149.01762845 542.25125056 146.74074898 543.5 144.4375 C545.68924376 140.435733 548.16256202 136.68889276 550.765625 132.9453125 C552.16095396 130.91926122 552.16095396 130.91926122 553 128 C553.66 128 554.32 128 555 128 C555.268125 127.278125 555.53625 126.55625 555.8125 125.8125 C556.99901362 123.00233617 558.27485639 120.51583443 560 118 C560.66 118 561.32 118 562 118 C562.40412109 116.92105469 562.40412109 116.92105469 562.81640625 115.8203125 C563.99817052 113.00435936 565.36556355 110.49089424 566.9375 107.875 C567.44152344 107.02679688 567.94554687 106.17859375 568.46484375 105.3046875 C570 103 570 103 571.4375 101.61328125 C574.26418187 98.69473222 576.09874313 94.97652792 578.12695312 91.47460938 C579.03335896 89.95136782 580.01146003 88.4712665 581 87 C581.66 87 582.32 87 583 87 C583.66 85.02 584.32 83.04 585 81 C585.66 81 586.32 81 587 81 C587.268125 80.278125 587.53625 79.55625 587.8125 78.8125 C588.99901362 76.00233617 590.27485639 73.51583443 592 71 C592.66 71 593.32 71 594 71 C594.2475 70.113125 594.495 69.22625 594.75 68.3125 C596.05758878 64.84738973 597.66081961 62.83537017 600 60 C601.04451438 58.02288349 602.05698138 56.02749004 603 54 C603.66 54 604.32 54 605 54 C605.268125 53.113125 605.53625 52.22625 605.8125 51.3125 C606.9250635 48.2090334 608.10195778 45.68889315 610 43 C610.66 43 611.32 43 612 43 C612.0825 42.13375 612.165 41.2675 612.25 40.375 C613.12620717 36.43206774 614.70328479 34.31747753 617 31 C622.4793676 21.01229198 625.9898821 11.03709897 629 0 C646.49 0 663.98 0 682 0 C685.3 7.26 688.6 14.52 692 22 C694.38167965 27.16067955 694.38167965 27.16067955 696.765625 32.3203125 C699.34232954 37.91404451 701.82306793 43.51198349 704.0625 49.25 C705.08253489 51.83779279 706.06629785 54.11049641 707.5 56.5 C708.87344958 58.78908263 709.79007163 60.89382923 710.75 63.375 C712.4935898 67.86139068 714.44959052 72.21086476 716.5 76.5625 C716.95838257 77.5361853 716.95838257 77.5361853 717.42602539 78.52954102 C717.87449829 79.48171509 717.87449829 79.48171509 718.33203125 80.453125 C721.04391372 86.21984464 723.62156495 92.00061888 725.9375 97.9375 C727.25012786 101.2597713 728.68328698 104.44643734 730.3125 107.625 C732.87129424 112.62485256 735.10660824 117.73756894 737.33642578 122.8894043 C739.69677959 128.33464684 742.16089064 133.72634137 744.66015625 139.109375 C747.18798342 144.5629963 749.63225841 150.02260706 751.8125 155.625 C754.07211664 161.34995757 756.70836344 166.88506286 759.33203125 172.44921875 C761.62344839 177.32720045 763.80374023 182.24958308 765.953125 187.19140625 C768.0715041 192.02500936 770.34317669 196.75031788 772.75390625 201.4453125 C774.28529107 204.58489141 775.64217644 207.78171382 777 211 C780.6378324 219.6137181 784.42114457 228.12529227 788.3984375 236.5859375 C790.32777457 240.69871945 792.22238188 244.81930553 794 249 C794.44859375 250.04414063 794.44859375 250.04414063 794.90625 251.109375 C795.32390625 252.13804687 795.32390625 252.13804687 795.75 253.1875 C795.99234375 253.77917969 796.2346875 254.37085938 796.484375 254.98046875 C797 257 797 257 797 263 C779.84 263 762.68 263 745 263 C743.02 255.08 741.04 247.16 739 239 C735.05851219 229.17327697 730.93118438 219.71399904 726.12084961 210.31298828 C724.99728282 207.99439282 724.04117356 205.65722173 723.125 203.25 C721.49450844 199.0345828 719.55376445 195.02168542 717.5 191 C715.06435282 186.22538879 712.88090221 181.4347237 710.9609375 176.4296875 C709.15863139 171.87263709 707.04716068 167.45092355 705 163 C703.10022895 158.78343499 701.23602459 154.55207315 699.40625 150.3046875 C696.24854811 142.99595817 692.95549711 135.82595465 689.3359375 128.73046875 C687.69831395 125.38339606 686.33592143 121.9707506 684.99609375 118.49609375 C683.91498855 115.78697132 682.72204918 113.1483923 681.5 110.5 C679.89129427 107.01283605 678.38941933 103.51749576 677 99.9375 C674.68634436 94.05073906 671.80666267 88.48519324 668.8984375 82.875 C666.98330976 79.1324603 665.40206738 75.42415436 663.9765625 71.4609375 C662.11069097 66.75894124 659.87191809 62.2164995 657.7109375 57.64453125 C656.00843105 54.03905893 654.39401109 50.3995915 652.82421875 46.734375 C651.91959718 44.72353712 651.91959718 44.72353712 650 42 C649.731875 41.175 649.46375 40.35 649.1875 39.5 C646.78264219 32.41199802 643.41651116 25.65320595 640 19 C636.91342299 23.58716583 634.48958768 27.96897152 632.6796875 33.1953125 C631.75302992 35.65574814 630.37541044 37.76495804 629 40 C628.33435804 41.5975407 627.66880659 43.19511924 627.00390625 44.79296875 C623.42025616 52.67142128 618.97228002 60.16337552 614.4609375 67.5390625 C612.90947672 70.15248573 611.48443617 72.81412058 610.0625 75.5 C607.57188238 80.11707183 604.76537685 84.36339693 601.70703125 88.62109375 C599.03456558 92.34542233 596.52931908 96.17766579 594 100 C592.27291471 102.60555336 590.54308597 105.20927083 588.8125 107.8125 C588.38412842 108.45920654 587.95575684 109.10591309 587.5144043 109.7722168 C585.81840071 112.32304078 584.12914434 114.83196725 582.26171875 117.26171875 C580.80361064 119.08691549 580.80361064 119.08691549 580 122 C579.34 122 578.68 122 578 122 C577.79375 122.66 577.5875 123.32 577.375 124 C575.81539275 127.40277945 573.79485629 130.00841407 571.515625 132.95703125 C569.37500151 135.84245931 567.72126576 138.84434611 566 142 C565.25277651 143.31408269 564.50283302 144.62662293 563.75 145.9375 C563.1725 146.948125 562.595 147.95875 562 149 C561.34 149 560.68 149 560 149 C559.71125 149.9075 559.4225 150.815 559.125 151.75 C558.23468224 154.32202908 557.28505587 156.61346766 556 159 C555.34 159 554.68 159 554 159 C553.7525 160.010625 553.505 161.02125 553.25 162.0625 C552.42582179 165.42789435 550.77504301 168.09757002 549.03417969 171.07055664 C547.30073052 174.3046097 546.16414261 177.71607269 545 181.1875 C544.48711413 182.70317068 543.97409285 184.21879554 543.4609375 185.734375 C543.2144043 186.46720703 542.96787109 187.20003906 542.71386719 187.95507812 C542.10376708 189.70275204 541.42213081 191.42517433 540.7265625 193.140625 C537.3918993 201.60735852 536.42747389 210.99392495 538 220 C540.13873929 224.65693233 543.33916952 227.04713807 548 229 C557.64965031 230.87678225 565.84778369 226.70402038 574 222 C574.33 221.34 574.66 220.68 575 220 C577.5625 219.375 577.5625 219.375 580 219 C580.33 218.01 580.66 217.02 581 216 C581.99 215.67 582.98 215.34 584 215 C585.68850742 213.35546413 587.35099346 211.68414162 589 210 C591.89082745 207.45582979 594.86211005 205.00466315 597.828125 202.54882812 C600.74772808 200.08937988 603.36598088 197.6734321 605.75 194.68359375 C608 192 608 192 611 191 C614.02213674 188.22970799 616.65490797 185.2426763 619.3125 182.125 C622.30782408 178.66185957 625.52312453 175.69557911 629.00390625 172.73046875 C631.04520736 170.96080849 633.00368447 169.13635993 634.9375 167.25 C635.78634766 166.42242187 635.78634766 166.42242187 636.65234375 165.578125 C638.2328861 163.92733264 638.2328861 163.92733264 639 161 C640.7421875 159.31640625 640.7421875 159.31640625 642.875 157.5625 C645.08746435 155.73782921 646.89410932 154.14491673 648.58984375 151.82421875 C650 150 650 150 652.6875 149.25 C653.450625 149.1675 654.21375 149.085 655 149 C655 148.34 655 147.68 655 147 C662.65869347 143.4652184 669.99251915 142.51062687 678.19140625 144.94921875 C685.74972382 147.9479505 692.62121744 151.76061223 698 158 C698 158.66 698 159.32 698 160 C698.763125 160.2475 699.52625 160.495 700.3125 160.75 C703.27791695 162.1292637 704.38360273 163.19257315 706 166 C706 166.99 706 167.98 706 169 C704.78763672 169.27263672 704.78763672 169.27263672 703.55078125 169.55078125 C701.94783203 169.92783203 701.94783203 169.92783203 700.3125 170.3125 C699.25675781 170.55613281 698.20101562 170.79976562 697.11328125 171.05078125 C694.02088282 171.99363297 691.72543397 173.29600713 689 175 C688.34 175 687.68 175 687 175 C686.67 175.66 686.34 176.32 686 177 C685.34 177.144375 684.68 177.28875 684 177.4375 C683.01 177.7159375 683.01 177.7159375 682 178 C681.67 178.99 681.34 179.98 681 181 C680.01 181.33 679.02 181.66 678 182 C677.34 182.99 676.68 183.98 676 185 C675.38125 185.28875 674.7625 185.5775 674.125 185.875 C671.83770283 186.90553104 671.83770283 186.90553104 670.25 189.1875 C668.34871562 191.56410548 666.60531027 193.29316588 664.3125 195.25 C657.52184387 201.06875924 651.32920274 207.40495671 645.60546875 214.2734375 C644 216 644 216 641.88671875 217.578125 C639.83201149 218.93451499 639.83201149 218.93451499 638.625 221.375 C636.59219584 224.65876056 633.95515648 226.5373696 631 229 C629.96986723 230.64821244 628.96885372 232.31503702 628 234 C626.37660195 235.70884005 624.70680947 237.37446717 623 239 C622.175 239.825 621.35 240.65 620.5 241.5 C618.77070784 243.22929216 617.01902995 244.9363805 615.25 246.625 C612.80995326 248.86533112 612.80995326 248.86533112 612 252 C610.44458008 253.52978516 610.44458008 253.52978516 608.45703125 255.1640625 C603.93865952 258.99728367 599.82708584 263.14108363 595.6875 267.375 C582.98083408 280.22363984 582.98083408 280.22363984 576 285 C575.34 285 574.68 285 574 285 C573.34 286.32 572.68 287.64 572 289 C571.01 289 570.02 289 569 289 C569 289.66 569 290.32 569 291 C567.1015625 292.5078125 567.1015625 292.5078125 564.625 294.125 C563.81289063 294.66382813 563.00078125 295.20265625 562.1640625 295.7578125 C560 297 560 297 558 297 C558 297.66 558 298.32 558 299 C556.35 299.33 554.7 299.66 553 300 C553 300.66 553 301.32 553 302 C550.76171875 303.515625 550.76171875 303.515625 547.6875 305.25 C546.58535156 305.87390625 545.48320313 306.4978125 544.34765625 307.140625 C543.24292969 307.75421875 542.13820313 308.3678125 541 309 C540.09121094 309.51046875 539.18242188 310.0209375 538.24609375 310.546875 C527.77740116 316.35068073 517.19351327 321.74373853 506 326 C504.58915155 326.5620677 503.17906473 327.12604901 501.76953125 327.69140625 C493.60168128 330.95081641 485.56521603 333.94530383 477 336 C475.83855469 336.30421875 474.67710937 336.6084375 473.48046875 336.921875 C456.83435592 341.26958241 440.14661978 344.50704402 423 346 C421.78441406 346.11214844 420.56882812 346.22429687 419.31640625 346.33984375 C400.47753031 347.84612846 381.75971729 347.10306304 363 345 C362.13052734 344.90348145 361.26105469 344.80696289 360.36523438 344.70751953 C338.99732675 342.23355456 318.14565623 337.37179466 298.02539062 329.76220703 C295.30231802 328.73744417 292.5566873 327.77903006 289.8125 326.8125 C280.5151442 323.37434069 271.90567044 318.89713853 263.18359375 314.21875 C260.42222513 312.73952576 257.64070742 311.32057981 254.828125 309.94140625 C251.51709534 308.29830219 248.41090732 306.4593804 245.3125 304.4375 C242.73211349 302.76080891 240.16375117 301.09639983 237.51171875 299.53515625 C233.74429021 297.2325133 230.26305206 294.56585883 226.71875 291.9375 C224.03855587 289.95925511 224.03855587 289.95925511 221.15625 288.375 C220.08890625 287.694375 220.08890625 287.694375 219 287 C219 286.34 219 285.68 219 285 C217.98292969 284.690625 217.98292969 284.690625 216.9453125 284.375 C212.9922199 282.52952441 210.11132594 279.88884673 206.875 277 C205.64445304 275.91527669 204.41272522 274.83189116 203.1796875 273.75 C202.64069824 273.27046875 202.10170898 272.7909375 201.54638672 272.296875 C199.81943856 270.80043876 199.81943856 270.80043876 197 269 C197 268.34 197 267.68 197 267 C196.443125 266.773125 195.88625 266.54625 195.3125 266.3125 C192.34144815 264.62622733 190.35477875 262.469646 188 260 C186.7625 258.7625 186.7625 258.7625 185.5 257.5 C183 255 180.5 252.5 178 250 C177.25492188 249.27167969 176.50984375 248.54335938 175.7421875 247.79296875 C172.57576371 244.56790748 169.58705907 241.22465676 166.625 237.8125 C166.05209229 237.15338623 165.47918457 236.49427246 164.88891602 235.81518555 C161.10761057 231.41483818 157.6343611 226.91855458 154.46484375 222.05078125 C153.01171908 219.88066923 153.01171908 219.88066923 150.81640625 217.91796875 C149 216 149 216 149 213 C148.01 212.67 147.02 212.34 146 212 C141.97285953 207.23739067 138.45190613 202.13027032 137 196 C136.34 196 135.68 196 135 196 C133.73828125 194.19921875 133.73828125 194.19921875 132.3125 191.6875 C129.52076996 186.84666761 126.52523906 182.18672593 123.41796875 177.54296875 C121.98443388 174.9720839 121.40070794 172.8986276 121 170 C120.34 170 119.68 170 119 170 C117.73828125 168.42578125 117.73828125 168.42578125 116.3125 166.3125 C114.16713766 163.31958711 112.17801772 161.18718033 109.125 159.125 C108.09375 158.42375 107.0625 157.7225 106 157 C106 156.34 106 155.68 106 155 C105.278125 155.04125 104.55625 155.0825 103.8125 155.125 C100.7485148 154.98882288 98.81561628 154.16745065 96 153 C94.0075675 152.62406934 92.0081326 152.28020455 90 152 C90 149.69 90 147.38 90 145 C97.94482847 140.86939228 106.05206231 137.2640537 114.421875 134.078125 C121.93468291 131.20409781 129.04022484 127.57592742 136.19335938 123.91601562 C137.80160595 123.10059114 139.42340474 122.31202104 141.046875 121.52734375 C144.49870233 119.74207326 147.73854421 117.73284042 151 115.625 C151.59039062 115.25117188 152.18078125 114.87734375 152.7890625 114.4921875 C165.97326137 106.0124825 175.38235592 94.11612168 180 79 C180.54499779 75.3952194 180.61925224 71.89117212 180.5625 68.25 C180.55476563 66.81962402 180.55476563 66.81962402 180.546875 65.36035156 C180.33308559 57.03100347 178.33354895 50.57191834 175 43 C175 42.34 175 41.68 175 41 C174.34 41 173.68 41 173 41 C171.66796875 38.98828125 171.66796875 38.98828125 170.1875 36.3125 C166.021048 29.17431357 160.66588896 24.71313306 154 20 C153.1223851 19.36430588 152.2447702 18.72861176 151.34056091 18.07365417 C139.06396611 10.45295432 124.73638047 10.2578495 110.74609375 10.29296875 C108.86465378 10.27981508 106.98322782 10.26449982 105.1018219 10.24714661 C100.21111425 10.20771233 95.32077943 10.19713335 90.42993164 10.19311523 C85.41476423 10.18370438 80.39980884 10.14624232 75.38476562 10.11132812 C65.58985331 10.04717695 55.7951041 10.01358944 46 10 C46.10482544 40.64215181 46.21456251 71.28428154 46.33111694 101.92639079 C46.34488584 105.5473626 46.35861304 109.16833457 46.37231445 112.78930664 C46.37504276 113.51015 46.37777106 114.23099336 46.38058204 114.97368046 C46.42460747 126.63185433 46.46525816 138.29003764 46.50465261 149.94822798 C46.54517715 161.91851685 46.58934935 173.88878828 46.63687855 185.85905141 C46.66345779 192.57921349 46.68837468 199.29937305 46.70907402 206.01955605 C46.72873417 212.34861368 46.75290535 218.67763828 46.78049088 225.00666618 C46.78981184 227.32573468 46.79750463 229.64481039 46.80341911 231.96389008 C46.81176511 235.13927738 46.82606434 238.31458627 46.84178162 241.48994446 C46.84275972 242.39951269 46.84373783 243.30908092 46.84474558 244.24621183 C46.8849508 250.5980572 47.41978514 256.61763657 48 263 C32.16 263 16.32 263 0 263 C1.058417 253.47424704 1.058417 253.47424704 2.04632568 248.79016113 C3.63867014 239.39257999 3.27870647 229.85827537 3.25878906 220.35742188 C3.26150284 218.17810449 3.26506594 215.99878802 3.26940918 213.81947327 C3.27848939 207.92904706 3.27500698 202.03869129 3.26865101 196.14826393 C3.26356835 189.9679407 3.26828875 183.78762328 3.27142334 177.6072998 C3.27505639 167.2308647 3.27028124 156.85445811 3.26074219 146.47802734 C3.24985892 134.50148518 3.25338497 122.52504398 3.264395 110.54850149 C3.27348671 100.24411739 3.27474394 89.93975373 3.26951766 79.63536692 C3.26640832 73.49045604 3.26596007 67.34557712 3.27259064 61.20066833 C3.2783909 55.42217781 3.27431828 49.64377464 3.26280212 43.8652935 C3.26016985 41.75142499 3.26089599 39.63754906 3.26532745 37.52368355 C3.28509383 27.13256393 3.16020471 17.21111074 1 7 C0.6362925 4.66981232 0.31865952 2.33683647 0 0 Z " fill="#FFFFFF" transform="translate(0,34)"/>
<path d="M0 0 C10.90040952 -0.0462956 21.80079573 -0.08185507 32.70128345 -0.10362434 C37.76256083 -0.11407133 42.82377105 -0.12824723 47.88500977 -0.15087891 C52.76737314 -0.17257465 57.64967184 -0.18456173 62.5320797 -0.18975449 C64.3968476 -0.19345612 66.26161187 -0.20068429 68.12635231 -0.21146011 C70.73380877 -0.2259316 73.34099631 -0.22797977 75.94848633 -0.22705078 C77.11050064 -0.23783661 77.11050064 -0.23783661 78.29598999 -0.24884033 C82.07844382 -0.23421237 83.77188702 -0.15207532 87 2 C87.5 4.8125 87.5 4.8125 87 8 C84.76074558 10.6871053 82.39860239 12.69580344 79.625 14.8125 C76.62508005 17.31243329 74.22860274 20.0858864 71.6953125 23.046875 C69.5768906 25.48745323 67.31483967 27.74607716 65 30 C64.071875 30.928125 63.14375 31.85625 62.1875 32.8125 C61.465625 33.534375 60.74375 34.25625 60 35 C60.91265625 35.03867188 60.91265625 35.03867188 61.84375 35.078125 C79.61538164 36.22805411 97.45937555 42.46326851 113 51 C113.55993652 51.30196289 114.11987305 51.60392578 114.69677734 51.91503906 C121.13283132 55.39775962 126.8931423 58.64909777 132 64 C132.66 64.33 133.32 64.66 134 65 C136.9272233 66.46361165 138.73837261 68.63557137 141 71 C141.93392578 71.90298828 141.93392578 71.90298828 142.88671875 72.82421875 C146.9621742 76.77546984 150.51453002 80.78191296 153.7734375 85.43359375 C154.93318727 87.14513593 154.93318727 87.14513593 157 88 C157.72693904 89.97888961 158.39816251 91.97954558 159 94 C159.66 94 160.32 94 161 94 C161.83848804 95.45537568 162.67063934 96.91440373 163.5 98.375 C164.19609375 99.59316406 164.19609375 99.59316406 164.90625 100.8359375 C166 103 166 103 166 105 C166.66 105 167.32 105 168 105 C172.39629522 115.89031505 172.39629522 115.89031505 174.21875 120.921875 C174.76126656 122.36496904 175.34818258 123.79183457 175.96875 125.203125 C186.96104806 151.68457034 184.21016031 186.63123515 173.90185547 212.87597656 C171.37796714 218.82016403 168.23344969 224.41673565 165 230 C164.25183713 231.30815536 163.50442781 232.61674201 162.7578125 233.92578125 C161.88769531 235.44751953 161.88769531 235.44751953 161 237 C160.34 237 159.68 237 159 237 C158.7834375 237.68578125 158.566875 238.3715625 158.34375 239.078125 C156.60600569 242.85670856 154.22472377 245.63651555 151.5 248.75 C150.96463623 249.36617187 150.42927246 249.98234375 149.87768555 250.6171875 C143.27038472 258.10683278 136.2362642 264.55197059 127.71484375 269.80859375 C125.84957622 270.90136456 125.84957622 270.90136456 125 273 C124.01 273 123.02 273 122 273 C121.67 273.66 121.34 274.32 121 275 C119.44140625 276.0703125 119.44140625 276.0703125 117.5625 277.125 C116.63630859 277.65480469 116.63630859 277.65480469 115.69140625 278.1953125 C114 279 114 279 112 279 C111.67 279.66 111.34 280.32 111 281 C77.04257988 299.85764175 36.13970915 301.36902604 -0.64306641 291.2746582 C-5.8349377 289.77387521 -10.81284355 288.00778273 -15.75 285.8125 C-16.42466309 285.51424316 -17.09932617 285.21598633 -17.79443359 284.90869141 C-25.95391383 281.22099552 -34.38531486 277.17144625 -41.2109375 271.3203125 C-43.83152262 268.85414303 -43.83152262 268.85414303 -47 268 C-48.81781867 266.39192964 -49.9107426 265.1785148 -51 263 C-51.66 263 -52.32 263 -53 263 C-53.66 262.01 -54.32 261.02 -55 260 C-55.99 259.67 -56.98 259.34 -58 259 C-59.39461024 257.40575805 -60.72098751 255.75089338 -62 254.0625 C-64.27433889 251.06881528 -65.85181862 249.09878759 -69 247 C-69.33 245.989375 -69.66 244.97875 -70 243.9375 C-70.33 242.968125 -70.66 241.99875 -71 241 C-71.99 240.67 -72.98 240.34 -74 240 C-75.25512695 238.38037109 -75.25512695 238.38037109 -76.48828125 236.2734375 C-77.17253174 235.10832642 -77.17253174 235.10832642 -77.87060547 233.91967773 C-78.34643066 233.07993408 -78.82225586 232.24019043 -79.3125 231.375 C-79.80379395 230.51269775 -80.29508789 229.65039551 -80.80126953 228.76196289 C-90.17460987 211.99196248 -96.72377831 193.33551813 -97 174 C-97.01369629 173.33645508 -97.02739258 172.67291016 -97.04150391 171.98925781 C-97.12452845 167.67398229 -97.11613362 163.3674502 -97.03271484 159.05224609 C-97.00265538 157.1665756 -97.0093152 155.28041365 -97.01953125 153.39453125 C-96.65745257 137.85963176 -91.13302438 121.70841818 -84 108 C-83.06243158 106.1042005 -82.12493044 104.20836773 -81.1875 102.3125 C-80.46039716 100.87395499 -79.73203776 99.43604004 -79 98 C-78.34 98 -77.68 98 -77 98 C-76.7525 97.29875 -76.505 96.5975 -76.25 95.875 C-74.82819762 92.60485452 -73.12753712 89.858878 -71 87 C-70.34 87 -69.68 87 -69 87 C-68.87625 86.1028125 -68.87625 86.1028125 -68.75 85.1875 C-67.79060637 82.38926857 -66.35950479 81.69589407 -64 80 C-63.505 78.515 -63.505 78.515 -63 77 C-60.16941104 73.86340142 -57.72912843 71.86456422 -54 70 C-53.2575 69.2575 -52.515 68.515 -51.75 67.75 C-47.18956353 63.18956353 -42.24579474 58.95181086 -36 57 C-36 56.34 -36 55.68 -36 55 C-34.37750059 54.16180842 -32.75191503 53.3295884 -31.125 52.5 C-30.22007812 52.0359375 -29.31515625 51.571875 -28.3828125 51.09375 C-26 50 -26 50 -24 50 C-23.505 49.01 -23.505 49.01 -23 48 C-18.02125258 45.19379691 -13.19419584 43.30619178 -7.6875 41.80859375 C-5.46399182 41.13960219 -3.38725131 40.36883329 -1.234375 39.51171875 C3.02768731 37.88943377 7.25661336 37.07734107 11.75 36.375 C17.91353412 35.37817029 17.91353412 35.37817029 24 34 C23.21238281 33.24380371 22.42476563 32.48760742 21.61328125 31.70849609 C18.69086077 28.89480133 15.78844664 26.06119102 12.89160156 23.22119141 C11.63589131 21.99562598 10.37484489 20.77550304 9.10839844 19.56103516 C7.28706026 17.81260769 5.48591586 16.04539684 3.6875 14.2734375 C3.11878174 13.73568695 2.55006348 13.1979364 1.96411133 12.64389038 C-0.74824701 9.93389345 -1.94946377 8.48224616 -2.35546875 4.60791016 C-2.23816406 3.7472998 -2.12085938 2.88668945 -2 2 C-1.34 2 -0.68 2 0 2 C0 1.34 0 0.68 0 0 Z M-31 67 C-32.093125 67.639375 -33.18625 68.27875 -34.3125 68.9375 C-37.47750794 71.36645958 -39.86237507 74.11967538 -42.38671875 77.1953125 C-44 79 -44 79 -47 81 C-48.05589069 82.63183107 -49.0436126 84.30792999 -50 86 C-50.82797582 87.33666685 -51.66170914 88.66977797 -52.5 90 C-53.33718897 91.3309158 -54.17030777 92.66439788 -55 94 C-55.48210937 94.72832031 -55.96421875 95.45664063 -56.4609375 96.20703125 C-58.4954881 99.89917256 -59.7977259 103.69567313 -61.125 107.6875 C-61.38925781 108.43966797 -61.65351563 109.19183594 -61.92578125 109.96679688 C-65.06223553 119.32043592 -65.16427684 128.65102172 -65.125 138.4375 C-65.12886719 139.39720703 -65.13273437 140.35691406 -65.13671875 141.34570312 C-65.12405505 150.74850372 -64.84802432 159.66499954 -61.625 168.5625 C-60.99464844 170.32787109 -60.99464844 170.32787109 -60.3515625 172.12890625 C-60.13008545 172.7410498 -59.9086084 173.35319336 -59.68041992 173.98388672 C-58.91444984 176.25348879 -58.29012162 178.54669937 -57.65234375 180.85546875 C-56.06075817 186.21587607 -53.68085734 190.89489103 -50.9375 195.75 C-50.45506836 196.61399414 -49.97263672 197.47798828 -49.47558594 198.36816406 C-43.61931142 208.67689027 -36.81256032 219.93851016 -28 228 C-27.34 228 -26.68 228 -26 228 C-25.731875 228.639375 -25.46375 229.27875 -25.1875 229.9375 C-24.11332248 232.33131686 -24.11332248 232.33131686 -21 233 C-20.690625 233.66 -20.38125 234.32 -20.0625 235 C-19.711875 235.66 -19.36125 236.32 -19 237 C-18.34 237.165 -17.68 237.33 -17 237.5 C-16.34 237.665 -15.68 237.83 -15 238 C-14.731875 238.5775 -14.46375 239.155 -14.1875 239.75 C-12.37891414 243.17679425 -9.32233938 245.08808772 -6 247 C-5.34 247 -4.68 247 -4 247 C-3.67 247.99 -3.34 248.98 -3 250 C-0.69700997 251.57701548 -0.69700997 251.57701548 2 253 C3.15048828 253.70769531 3.15048828 253.70769531 4.32421875 254.4296875 C31.93399484 271.31500511 63.67164868 280.61691401 96 274 C105.71167406 271.58119757 116.02231349 267.41132805 123 260 C124.77885296 258.51432102 126.57482103 257.05256368 128.37890625 255.59765625 C130.14758468 253.85454907 130.94419811 252.2284159 132 250 C133.051875 248.9790625 133.051875 248.9790625 134.125 247.9375 C136.34771071 246.09006673 136.34771071 246.09006673 136 243 C136.66 243 137.32 243 138 243 C152.52082774 217.44757254 153.10660926 190.06948405 146 162 C145.06597143 159.31331552 144.0346838 156.72203039 142.89453125 154.1171875 C142 152 142 152 141.125 148.625 C138.42481694 139.92441014 133.50183016 131.88816259 129 124 C128.34 124 127.68 124 127 124 C126.75121094 123.29359375 126.50242187 122.5871875 126.24609375 121.859375 C124.84930301 118.65420001 123.11487159 116.07822156 121.0625 113.25 C120.37285156 112.28578125 119.68320312 111.3215625 118.97265625 110.328125 C117.141768 107.75871771 117.141768 107.75871771 114 107 C113.7834375 106.0409375 113.7834375 106.0409375 113.5625 105.0625 C113.376875 104.381875 113.19125 103.70125 113 103 C111.67532254 102.3162955 110.34136367 101.65035814 109 101 C108.31513275 99.67592331 107.65129797 98.34090759 107 97 C104.04485434 93.65601938 102.26347633 92.02911498 98 91 C96.75 88.9375 96.75 88.9375 96 87 C95.01 87 94.02 87 93 87 C92.67 86.01 92.34 85.02 92 84 C89.49552484 82.78130071 89.49552484 82.78130071 87 82 C87 81.34 87 80.68 87 80 C85.56674374 78.80581591 85.56674374 78.80581591 83.67578125 77.6875 C82.97646484 77.25179687 82.27714844 76.81609375 81.55664062 76.3671875 C80.44579102 75.69042969 80.44579102 75.69042969 79.3125 75 C78.59126953 74.54882812 77.87003906 74.09765625 77.12695312 73.6328125 C73.49185592 71.38867943 70.01179303 69.49731488 66 68 C64.76672488 67.41879538 63.53801165 66.82786939 62.3125 66.23046875 C32.85069909 52.10428506 -2.75113093 48.04532934 -31 67 Z " fill="#FFFFFF" transform="translate(331,0)"/>
<path d="M0 0 C1.98 0 3.96 0 6 0 C8.1953125 2.6328125 8.1953125 2.6328125 10.125 6.125 C10.76695312 7.26195312 11.40890625 8.39890625 12.0703125 9.5703125 C12.70710938 10.70210938 13.34390625 11.83390625 14 13 C14.73992187 14.04929687 15.47984375 15.09859375 16.2421875 16.1796875 C18 19 18 19 18 23 C18.66 23 19.32 23 20 23 C21.32 25.31 22.64 27.62 24 30 C26.74277578 26.80009492 28.6302836 23.99500618 30 20 C30.66 20 31.32 20 32 20 C32.226875 19.175 32.45375 18.35 32.6875 17.5 C34.27917944 13.2555215 36.53490712 9.77929067 39 6 C39.86625 4.5459375 39.86625 4.5459375 40.75 3.0625 C42 1 42 1 43 0 C44.98 0 46.96 0 49 0 C49 13.53 49 27.06 49 41 C46.36 41 43.72 41 41 41 C40.505 28.625 40.505 28.625 40 16 C34.94831064 22.16827129 34.94831064 22.16827129 34 27 C33.34 27 32.68 27 32 27 C31.67 28.32 31.34 29.64 31 31 C30.34 31 29.68 31 29 31 C28.67 32.98 28.34 34.96 28 37 C27.34 37 26.68 37 26 37 C25.67 38.32 25.34 39.64 25 41 C22.796875 40.98828125 22.796875 40.98828125 20 40 C18.04048379 37.60152131 16.67436086 34.92831559 15.25 32.1875 C14.85167969 31.46240234 14.45335937 30.73730469 14.04296875 29.99023438 C12.25205403 26.67248898 10.80392163 23.70348808 10 20 C9.34 20 8.68 20 8 20 C7.34 18.35 6.68 16.7 6 15 C5.67 23.58 5.34 32.16 5 41 C3.35 41 1.7 41 0 41 C0 27.47 0 13.94 0 0 Z " fill="#FFFFFF" transform="translate(330,409)"/>
<path d="M0 0 C1.88525391 -0.00773437 1.88525391 -0.00773437 3.80859375 -0.015625 C9.58036361 0.39278327 14.81198308 1.51801151 19.203125 5.5078125 C22.85308894 10.18563985 25.04443956 16.48966054 24.5625 22.4375 C22.96094725 28.54341985 20.68971009 34.29472364 15.5625 38.25 C10.46374116 40.82160315 6.30549415 41.72401714 0.5625 41.625 C-0.11039062 41.63660156 -0.78328125 41.64820313 -1.4765625 41.66015625 C-7.96176341 41.62259717 -12.47625745 39.96087116 -17.375 35.6875 C-19.4375 33.25 -19.4375 33.25 -19.4375 31.25 C-20.0975 31.25 -20.7575 31.25 -21.4375 31.25 C-22.62854332 27.67687005 -22.64278823 24.70446678 -22.6875 20.9375 C-22.71328125 19.64199219 -22.7390625 18.34648437 -22.765625 17.01171875 C-22.35336852 12.2854927 -20.88494647 9.05930809 -17.9375 5.375 C-16.4375 4.25 -16.4375 4.25 -13.4375 4.25 C-13.4375 3.59 -13.4375 2.93 -13.4375 2.25 C-8.81820694 0.45637619 -4.94496412 -0.0202455 0 0 Z M-10.4375 8.25 C-13.534868 12.30160764 -15.28230074 15.9197206 -15.875 21 C-15.46024719 24.08102089 -14.78941569 26.4616739 -13.4375 29.25 C-12.7775 29.25 -12.1175 29.25 -11.4375 29.25 C-11.375625 29.848125 -11.31375 30.44625 -11.25 31.0625 C-10.58289225 33.40803969 -10.58289225 33.40803969 -8.4375 34.9375 C-3.37802594 37.1510199 1.37836786 37.62802287 6.8125 36.6875 C10.93292096 34.53364359 13.46679609 31.44140781 15.5625 27.25 C15.71151491 25.14946284 15.78388453 23.04312175 15.8125 20.9375 C15.83828125 19.80699219 15.8640625 18.67648437 15.890625 17.51171875 C15.40504697 12.6848419 13.61531069 10.19752962 10.0625 7 C3.59965048 2.47600533 -4.5838529 2.93625239 -10.4375 8.25 Z " fill="#FFFFFF" transform="translate(424.4375,408.75)"/>
<path d="M0 0 C23.875 0 23.875 0 31.5625 4.5 C33 6 33 6 33 9 C33.66 9 34.32 9 35 9 C37.43577332 12.76437695 37.23476404 16.16694463 37.1875 20.5625 C37.18685547 21.23474609 37.18621094 21.90699219 37.18554688 22.59960938 C37.1581579 25.66413171 36.9757613 28.0727161 36 31 C35.34 31 34.68 31 34 31 C33.75894531 31.76699219 33.51789062 32.53398437 33.26953125 33.32421875 C31.33114903 37.40973204 28.82473223 38.32467921 24.7734375 40.0625 C16.66465031 42.07710551 8.2894667 41.26399575 0 41 C0 27.47 0 13.94 0 0 Z M7 4 C7 14.56 7 25.12 7 36 C16.34290353 36.30605102 16.34290353 36.30605102 24 33 C26.93308577 29.98764164 28.95464316 27.08639492 30 23 C29.74596343 17.66523199 29.06700029 13.49826709 26 9 C19.57863729 3.94488467 16.04269453 4.75355788 7 4 Z " fill="#FFFFFF" transform="translate(537,409)"/>
<path d="M0 0 C22.05357143 0 22.05357143 0 29 3 C29 3.66 29 4.32 29 5 C29.763125 5.165 30.52625 5.33 31.3125 5.5 C34.55621063 7.31044314 35.38791911 9.09299384 36.4921875 12.58984375 C37.99710843 19.73242999 37.72310389 25.91454009 34.16796875 32.34375 C30.80234884 37.11640164 26.5033881 39.29708827 21 41 C17.28565984 41.43800864 13.6701817 41.38399826 9.9375 41.25 C5.0184375 41.12625 5.0184375 41.12625 0 41 C0 27.47 0 13.94 0 0 Z M7 5 C7 15.23 7 25.46 7 36 C16.63825938 36.58759977 16.63825938 36.58759977 24 33 C28.66930962 27.82590015 29.36287625 24.60378291 29.2734375 17.76171875 C28.88380138 13.82639396 27.71351411 11.85266868 25 9 C18.54327168 3.9927413 16.16454371 5 7 5 Z " fill="#FFFFFF" transform="translate(174,409)"/>
<path d="M0 0 C4.19410056 1.04852514 4.94280846 1.62060906 7.75 4.625 C12.33272618 9.38594331 17.23059068 13.66686749 22.28125 17.921875 C23.0134375 18.54578125 23.745625 19.1696875 24.5 19.8125 C25.1703125 20.37582031 25.840625 20.93914062 26.53125 21.51953125 C28 23 28 23 28 25 C28.99 25.33 29.98 25.66 31 26 C31.33 17.75 31.66 9.5 32 1 C33.65 0.67 35.3 0.34 37 0 C38 1 38 1 38.11352539 4.78540039 C38.11336622 6.47282729 38.10766917 8.16025905 38.09765625 9.84765625 C38.0962413 10.7340831 38.09482635 11.62050995 38.09336853 12.53379822 C38.08775215 15.37673254 38.07519691 18.21958931 38.0625 21.0625 C38.05748711 22.98502491 38.05292384 24.90755104 38.04882812 26.83007812 C38.03777741 31.55341549 38.02050183 36.27669458 38 41 C33.16535705 40.24867035 30.50390158 38.29293368 27 35 C26.05125 34.113125 25.1025 33.22625 24.125 32.3125 C22 30 22 30 22 28 C21.2575 27.773125 20.515 27.54625 19.75 27.3125 C16.47768636 25.75071394 15.13979061 23.87764944 13 21 C12.34 20.67 11.68 20.34 11 20 C11 19.34 11 18.68 11 18 C10.071875 17.566875 10.071875 17.566875 9.125 17.125 C7 16 7 16 5 14 C4.67 22.91 4.34 31.82 4 41 C2.68 41 1.36 41 0 41 C0 27.47 0 13.94 0 0 Z " fill="#FFFFFF" transform="translate(472,409)"/>
<path d="M0 0 C1.1240625 0.00644531 2.248125 0.01289063 3.40625 0.01953125 C8.28204586 0.28425249 9.78679185 0.4418733 13.25 4.0625 C15.5 7.1875 15.5 7.1875 15.5 10.1875 C12.8125 10.5 12.8125 10.5 9.5 10.1875 C8.71625 9.3625 7.9325 8.5375 7.125 7.6875 C4.36040032 5.05454792 3.94656079 4.79177915 0.375 4.6875 C-3.3290598 4.91334105 -3.3290598 4.91334105 -5.5625 6.375 C-6.88135516 8.92478665 -6.2975116 10.50496098 -5.5 13.1875 C-4.63761719 13.46722656 -3.77523437 13.74695313 -2.88671875 14.03515625 C0.35296634 15.13747125 3.51805502 16.33552999 6.6875 17.625 C7.71230469 18.03621094 8.73710938 18.44742187 9.79296875 18.87109375 C12.31898089 20.09947195 13.78283062 21.00048623 15.5 23.1875 C17.04799337 27.83148011 16.99594333 32.51267708 15.5 37.1875 C14.84 37.1875 14.18 37.1875 13.5 37.1875 C13.17 37.8475 12.84 38.5075 12.5 39.1875 C8.88440159 41.71752171 4.9414928 41.57227255 0.6875 41.5625 C-0.38781982 41.56008301 -0.38781982 41.56008301 -1.48486328 41.55761719 C-7.04768694 41.42792393 -10.29060391 40.79555379 -14.5 37.1875 C-16.6518868 34.19357054 -16.5 33.04842651 -16.5 29.1875 C-13.6875 28.875 -13.6875 28.875 -10.5 29.1875 C-8.875 31.5625 -8.875 31.5625 -7.5 34.1875 C-4.01340365 36.89929716 0.27411463 36.63779926 4.5 36.1875 C6.90557853 35.32484032 6.90557853 35.32484032 8.5 34.1875 C8.17 31.8775 7.84 29.5675 7.5 27.1875 C6.84 27.1875 6.18 27.1875 5.5 27.1875 C5.5 26.5275 5.5 25.8675 5.5 25.1875 C3.91701974 24.7071682 2.33360022 24.22828388 0.75 23.75 C-0.13171875 23.48316406 -1.0134375 23.21632813 -1.921875 22.94140625 C-4.10565835 22.30281506 -6.28835498 21.71974167 -8.5 21.1875 C-8.5 20.5275 -8.5 19.8675 -8.5 19.1875 C-9.49 19.1875 -10.48 19.1875 -11.5 19.1875 C-14.3273647 16.67428693 -14.51482511 15.05407401 -14.9375 11.25 C-14.77674469 7.13925696 -13.52941944 5.04861836 -10.5 2.1875 C-7.02044701 -0.06167052 -4.08824673 -0.05157192 0 0 Z " fill="#FFFFFF" transform="translate(607.5,408.8125)"/>
<path d="M0 0 C1.65 0 3.3 0 5 0 C15.54122645 19.92859521 15.54122645 19.92859521 18.97265625 26.92578125 C19.68860312 28.37128615 20.4274725 29.805567 21.18359375 31.23046875 C23.07398964 34.82156683 24 36.86135005 24 41 C21.36 41 18.72 41 16 41 C15.16180842 39.37750059 14.3295884 37.75191503 13.5 36.125 C13.0359375 35.22007812 12.571875 34.31515625 12.09375 33.3828125 C11 31 11 31 11 29 C5.06 29 -0.88 29 -7 29 C-7.99 31.475 -7.99 31.475 -9 34 C-9.98642673 36.33936981 -10.99437032 38.66876757 -12 41 C-13.65 41 -15.3 41 -17 41 C-16.37945306 33.34658768 -12.31232204 26.54115744 -8.875 19.8125 C-7.25193258 16.62479559 -6.00079401 13.39447614 -4.79296875 10.03125 C-3.4388004 6.56244438 -1.71137695 3.3047279 0 0 Z M1 11 C-0.00484204 12.95585325 -1.00373805 14.91476237 -2 16.875 C-2.556875 17.96554687 -3.11375 19.05609375 -3.6875 20.1796875 C-5.14064094 22.78375082 -5.14064094 22.78375082 -5 25 C-0.38 25 4.24 25 9 25 C6.69 20.38 4.38 15.76 2 11 C1.67 11 1.34 11 1 11 Z " fill="#FFFFFF" transform="translate(284,409)"/>
<path d="M0 0 C2.31 0 4.62 0 7 0 C7 13.53 7 27.06 7 41 C4.36 41 1.72 41 -1 41 C-1.02464705 35.32169922 -1.04283462 29.64342931 -1.05493164 23.96508789 C-1.05997256 22.03181415 -1.06680519 20.09854424 -1.07543945 18.1652832 C-1.08751565 15.39273128 -1.09323057 12.62022959 -1.09765625 9.84765625 C-1.10281754 8.97786636 -1.10797882 8.10807648 -1.11329651 7.21192932 C-1.11349185 5.14094186 -1.06208168 3.07005676 -1 1 C-0.67 0.67 -0.34 0.34 0 0 Z " fill="#FFFFFF" transform="translate(236,409)"/>
</svg>
